# xmcd CD database file
#
# Track frame offsets:
#	150
#	21392
#	39995
#	61455
#	86442
#	119290
#	136155
#	158434
#	181302
#	198105
#
# Disc length: 2921 seconds
#
# Revision: 0
# Processed by: cddbd v1.5.1PL0 Copyright (c) Steve Scherf et al.
# Submitted via: CDex 1.51
#
DISCID=760b670a
DTITLE=Mayra Caridad Valdes - La Diosa del Mar
DYEAR=2001
DGENRE=Jazz
TTITLE0=Drume negrita
TTITLE1=Mambo influenciado
TTITLE2=Danza naniga
TTITLE3=Besame mucho
TTITLE4=Yemaya
TTITLE5=Para que vuelvas
TTITLE6=Billie's Bounce
TTITLE7=Danzonete
TTITLE8=Como fue
TTITLE9=Rezo afrocubano
EXTD=YEAR: 2001
EXTT0=
EXTT1=
EXTT2=
EXTT3=
EXTT4=
EXTT5=
EXTT6=
EXTT7=
EXTT8=
EXTT9=
PLAYORDER=
